<svg width="238" height="109" viewBox="0 0 238 109" fill="none" xmlns="http://www.w3.org/2000/svg">
<circle cx="95.5926" cy="54.5926" r="52.5926" stroke="#622BB9" stroke-width="3"/>
<path d="M238 56.2593L228 50.4858V62.0328L238 56.2593ZM203.926 57.2593H229V55.2593H203.926V57.2593Z" fill="white"/>
<path d="M18.6914 57.4688H25.0195C24.9154 59.4219 24.3815 61.1471 23.418 62.6445C22.4674 64.1289 21.1458 65.2943 19.4531 66.1406C17.7604 66.974 15.7487 67.3906 13.418 67.3906C11.556 67.3906 9.88932 67.0716 8.41797 66.4336C6.94661 65.7956 5.69661 64.8841 4.66797 63.6992C3.65234 62.5013 2.87109 61.0625 2.32422 59.3828C1.79036 57.6901 1.52344 55.7826 1.52344 53.6602V51.9219C1.52344 49.7995 1.80339 47.8919 2.36328 46.1992C2.92318 44.5065 3.72396 43.0612 4.76562 41.8633C5.80729 40.6654 7.05729 39.7474 8.51562 39.1094C9.97396 38.4714 11.6016 38.1523 13.3984 38.1523C15.8203 38.1523 17.8646 38.5885 19.5312 39.4609C21.1979 40.3333 22.487 41.5312 23.3984 43.0547C24.3229 44.5781 24.8763 46.3164 25.0586 48.2695H18.7109C18.6589 47.1628 18.4505 46.2318 18.0859 45.4766C17.7214 44.7083 17.1615 44.1289 16.4062 43.7383C15.651 43.3477 14.6484 43.1523 13.3984 43.1523C12.487 43.1523 11.6862 43.3216 10.9961 43.6602C10.319 43.9987 9.7526 44.526 9.29688 45.2422C8.85417 45.9583 8.52214 46.8698 8.30078 47.9766C8.07943 49.0703 7.96875 50.3724 7.96875 51.8828V53.6602C7.96875 55.1576 8.06641 56.4531 8.26172 57.5469C8.45703 58.6406 8.76953 59.5456 9.19922 60.2617C9.64193 60.9779 10.2083 61.5117 10.8984 61.8633C11.5885 62.2148 12.4284 62.3906 13.418 62.3906C14.5508 62.3906 15.4948 62.2148 16.25 61.8633C17.0052 61.4987 17.5846 60.9518 17.9883 60.2227C18.3919 59.4935 18.6263 58.5755 18.6914 57.4688ZM27.3633 56.6484V56.2383C27.3633 54.6888 27.5846 53.263 28.0273 51.9609C28.4701 50.6458 29.1211 49.5065 29.9805 48.543C30.8398 47.5794 31.8945 46.8307 33.1445 46.2969C34.3945 45.75 35.8268 45.4766 37.4414 45.4766C39.082 45.4766 40.5273 45.75 41.7773 46.2969C43.0404 46.8307 44.1016 47.5794 44.9609 48.543C45.8203 49.5065 46.4714 50.6458 46.9141 51.9609C47.3568 53.263 47.5781 54.6888 47.5781 56.2383V56.6484C47.5781 58.1849 47.3568 59.6107 46.9141 60.9258C46.4714 62.2279 45.8203 63.3672 44.9609 64.3438C44.1016 65.3073 43.0469 66.056 41.7969 66.5898C40.5469 67.1237 39.1081 67.3906 37.4805 67.3906C35.8659 67.3906 34.4271 67.1237 33.1641 66.5898C31.901 66.056 30.8398 65.3073 29.9805 64.3438C29.1211 63.3672 28.4701 62.2279 28.0273 60.9258C27.5846 59.6107 27.3633 58.1849 27.3633 56.6484ZM33.4766 56.2383V56.6484C33.4766 57.4818 33.5417 58.263 33.6719 58.9922C33.8151 59.7214 34.043 60.3594 34.3555 60.9062C34.668 61.4531 35.0781 61.8828 35.5859 62.1953C36.1068 62.4948 36.7383 62.6445 37.4805 62.6445C38.2227 62.6445 38.8477 62.4948 39.3555 62.1953C39.8633 61.8828 40.2734 61.4531 40.5859 60.9062C40.8984 60.3594 41.1198 59.7214 41.25 58.9922C41.3932 58.263 41.4648 57.4818 41.4648 56.6484V56.2383C41.4648 55.418 41.3932 54.6497 41.25 53.9336C41.1198 53.2044 40.8984 52.5599 40.5859 52C40.2734 51.4401 39.8568 51.0039 39.3359 50.6914C38.8281 50.3789 38.1966 50.2227 37.4414 50.2227C36.7122 50.2227 36.0938 50.3789 35.5859 50.6914C35.0781 51.0039 34.668 51.4401 34.3555 52C34.043 52.5599 33.8151 53.2044 33.6719 53.9336C33.5417 54.6497 33.4766 55.418 33.4766 56.2383ZM56.7578 50.3789V67H50.6445V45.8672H56.3867L56.7578 50.3789ZM55.957 55.6914L54.4336 55.7305C54.4336 54.1419 54.6289 52.7161 55.0195 51.4531C55.4102 50.1901 55.9635 49.1159 56.6797 48.2305C57.4089 47.332 58.2747 46.6484 59.2773 46.1797C60.293 45.7109 61.4128 45.4766 62.6367 45.4766C63.6263 45.4766 64.5312 45.6198 65.3516 45.9062C66.1719 46.1927 66.875 46.6549 67.4609 47.293C68.0599 47.918 68.5156 48.7513 68.8281 49.793C69.1406 50.8216 69.2969 52.0911 69.2969 53.6016V67H63.1641V53.582C63.1641 52.6966 63.0404 52.013 62.793 51.5312C62.5456 51.0495 62.181 50.7109 61.6992 50.5156C61.2305 50.3203 60.6576 50.2227 59.9805 50.2227C59.2643 50.2227 58.6523 50.3659 58.1445 50.6523C57.6367 50.9258 57.2201 51.3099 56.8945 51.8047C56.569 52.2995 56.3281 52.8789 56.1719 53.543C56.0286 54.207 55.957 54.9232 55.957 55.6914ZM84.0234 45.8672V50.1445H71.4844V45.8672H84.0234ZM74.3555 40.6328H80.4688V60.3789C80.4688 60.9648 80.5404 61.4141 80.6836 61.7266C80.8268 62.0391 81.0612 62.2604 81.3867 62.3906C81.7122 62.5078 82.1289 62.5664 82.6367 62.5664C83.0013 62.5664 83.3138 62.5534 83.5742 62.5273C83.8346 62.5013 84.0755 62.4688 84.2969 62.4297V66.8438C83.776 67.013 83.2227 67.1432 82.6367 67.2344C82.0508 67.3385 81.4128 67.3906 80.7227 67.3906C79.4076 67.3906 78.2682 67.1758 77.3047 66.7461C76.3542 66.3164 75.625 65.6393 75.1172 64.7148C74.6094 63.7773 74.3555 62.5599 74.3555 61.0625V40.6328ZM98.1445 61.9609V52.8984C98.1445 52.2604 98.0469 51.7135 97.8516 51.2578C97.6562 50.8021 97.3503 50.444 96.9336 50.1836C96.5169 49.9232 95.9766 49.793 95.3125 49.793C94.7526 49.793 94.2643 49.8906 93.8477 50.0859C93.444 50.2812 93.1315 50.5612 92.9102 50.9258C92.7018 51.2904 92.5977 51.7396 92.5977 52.2734H86.5039C86.5039 51.3229 86.7188 50.4375 87.1484 49.6172C87.5781 48.7969 88.1901 48.0742 88.9844 47.4492C89.7917 46.8242 90.7552 46.3424 91.875 46.0039C92.9948 45.6523 94.2513 45.4766 95.6445 45.4766C97.2982 45.4766 98.7695 45.7565 100.059 46.3164C101.361 46.8633 102.389 47.6901 103.145 48.7969C103.9 49.8906 104.277 51.2708 104.277 52.9375V61.7852C104.277 63.0612 104.349 64.0638 104.492 64.793C104.648 65.5091 104.87 66.1341 105.156 66.668V67H99.0039C98.7174 66.388 98.5026 65.6328 98.3594 64.7344C98.2161 63.8229 98.1445 62.8984 98.1445 61.9609ZM98.9062 54.1094L98.9453 57.4688H95.918C95.2409 57.4688 94.6549 57.5534 94.1602 57.7227C93.6784 57.8919 93.2878 58.1263 92.9883 58.4258C92.6888 58.7122 92.4674 59.0508 92.3242 59.4414C92.194 59.819 92.1289 60.2357 92.1289 60.6914C92.1289 61.1211 92.2331 61.5117 92.4414 61.8633C92.6497 62.2018 92.9362 62.4688 93.3008 62.6641C93.6654 62.8594 94.0885 62.957 94.5703 62.957C95.3646 62.957 96.0417 62.8008 96.6016 62.4883C97.1745 62.1758 97.6172 61.7982 97.9297 61.3555C98.2422 60.8997 98.3984 60.4766 98.3984 60.0859L99.8633 62.625C99.6289 63.1458 99.3424 63.6862 99.0039 64.2461C98.6654 64.793 98.2357 65.3073 97.7148 65.7891C97.194 66.2578 96.5625 66.6419 95.8203 66.9414C95.0911 67.2409 94.2122 67.3906 93.1836 67.3906C91.8555 67.3906 90.651 67.1237 89.5703 66.5898C88.4896 66.043 87.6237 65.2943 86.9727 64.3438C86.3346 63.3932 86.0156 62.2995 86.0156 61.0625C86.0156 59.9557 86.2174 58.9727 86.6211 58.1133C87.0247 57.2539 87.6302 56.5247 88.4375 55.9258C89.2578 55.3268 90.2865 54.8776 91.5234 54.5781C92.7604 54.2656 94.2057 54.1094 95.8594 54.1094H98.9062ZM117.109 62.6445C117.76 62.6445 118.327 62.5208 118.809 62.2734C119.29 62.026 119.661 61.681 119.922 61.2383C120.195 60.7826 120.332 60.2357 120.332 59.5977H126.074C126.074 61.1341 125.677 62.4883 124.883 63.6602C124.102 64.832 123.047 65.75 121.719 66.4141C120.391 67.0651 118.893 67.3906 117.227 67.3906C115.586 67.3906 114.154 67.1237 112.93 66.5898C111.706 66.043 110.684 65.2812 109.863 64.3047C109.043 63.3281 108.424 62.1953 108.008 60.9062C107.604 59.6042 107.402 58.1979 107.402 56.6875V56.1797C107.402 54.6823 107.604 53.2826 108.008 51.9805C108.424 50.6784 109.043 49.5391 109.863 48.5625C110.684 47.5859 111.699 46.8307 112.91 46.2969C114.134 45.75 115.566 45.4766 117.207 45.4766C118.939 45.4766 120.469 45.8086 121.797 46.4727C123.138 47.1367 124.186 48.0938 124.941 49.3438C125.697 50.5807 126.074 52.0716 126.074 53.8164H120.332C120.332 53.1393 120.208 52.5339 119.961 52C119.727 51.4531 119.362 51.0234 118.867 50.7109C118.385 50.3854 117.786 50.2227 117.07 50.2227C116.328 50.2227 115.716 50.3854 115.234 50.7109C114.766 51.0234 114.408 51.4596 114.16 52.0195C113.913 52.5794 113.743 53.2174 113.652 53.9336C113.561 54.6367 113.516 55.3854 113.516 56.1797V56.6875C113.516 57.4948 113.561 58.263 113.652 58.9922C113.743 59.7083 113.913 60.3398 114.16 60.8867C114.421 61.4336 114.785 61.8633 115.254 62.1758C115.723 62.4883 116.341 62.6445 117.109 62.6445ZM139.844 45.8672V50.1445H127.305V45.8672H139.844ZM130.176 40.6328H136.289V60.3789C136.289 60.9648 136.361 61.4141 136.504 61.7266C136.647 62.0391 136.882 62.2604 137.207 62.3906C137.533 62.5078 137.949 62.5664 138.457 62.5664C138.822 62.5664 139.134 62.5534 139.395 62.5273C139.655 62.5013 139.896 62.4688 140.117 62.4297V66.8438C139.596 67.013 139.043 67.1432 138.457 67.2344C137.871 67.3385 137.233 67.3906 136.543 67.3906C135.228 67.3906 134.089 67.1758 133.125 66.7461C132.174 66.3164 131.445 65.6393 130.938 64.7148C130.43 63.7773 130.176 62.5599 130.176 61.0625V40.6328ZM165.137 61.9023V45.8672H171.27V67H165.527L165.137 61.9023ZM165.781 57.5859L167.461 57.5469C167.461 58.9661 167.292 60.2747 166.953 61.4727C166.628 62.6706 166.133 63.7122 165.469 64.5977C164.818 65.4831 164.004 66.1732 163.027 66.668C162.064 67.1497 160.938 67.3906 159.648 67.3906C158.607 67.3906 157.65 67.2474 156.777 66.9609C155.918 66.6615 155.176 66.1992 154.551 65.5742C153.926 64.9362 153.444 64.1224 153.105 63.1328C152.767 62.1302 152.598 60.9323 152.598 59.5391V45.8672H158.691V59.5781C158.691 60.125 158.757 60.5938 158.887 60.9844C159.03 61.362 159.219 61.6745 159.453 61.9219C159.701 62.1693 160 62.3516 160.352 62.4688C160.716 62.5859 161.113 62.6445 161.543 62.6445C162.624 62.6445 163.47 62.4232 164.082 61.9805C164.707 61.5247 165.143 60.9193 165.391 60.1641C165.651 59.3958 165.781 58.5365 165.781 57.5859ZM186.484 61.1211C186.484 60.7305 186.361 60.3854 186.113 60.0859C185.879 59.7865 185.449 59.513 184.824 59.2656C184.212 59.0182 183.346 58.7708 182.227 58.5234C181.172 58.3021 180.189 58.0156 179.277 57.6641C178.366 57.2995 177.572 56.8633 176.895 56.3555C176.217 55.8346 175.69 55.2227 175.312 54.5195C174.935 53.8034 174.746 52.9896 174.746 52.0781C174.746 51.1927 174.935 50.3529 175.312 49.5586C175.703 48.7643 176.263 48.0612 176.992 47.4492C177.734 46.8372 178.633 46.3555 179.688 46.0039C180.755 45.6523 181.966 45.4766 183.32 45.4766C185.182 45.4766 186.79 45.7695 188.145 46.3555C189.499 46.9284 190.54 47.7357 191.27 48.7773C191.999 49.806 192.363 50.9844 192.363 52.3125H186.27C186.27 51.7656 186.165 51.2904 185.957 50.8867C185.749 50.4831 185.43 50.1706 185 49.9492C184.57 49.7148 184.004 49.5977 183.301 49.5977C182.754 49.5977 182.272 49.6953 181.855 49.8906C181.452 50.0729 181.133 50.3268 180.898 50.6523C180.677 50.9779 180.566 51.3555 180.566 51.7852C180.566 52.0846 180.632 52.3581 180.762 52.6055C180.905 52.8398 181.12 53.0612 181.406 53.2695C181.706 53.4648 182.09 53.6406 182.559 53.7969C183.04 53.9531 183.626 54.1029 184.316 54.2461C185.788 54.5195 187.129 54.9036 188.34 55.3984C189.564 55.8932 190.54 56.5768 191.27 57.4492C192.012 58.3216 192.383 59.474 192.383 60.9062C192.383 61.8438 192.168 62.7031 191.738 63.4844C191.322 64.2656 190.716 64.9492 189.922 65.5352C189.128 66.1211 188.177 66.5768 187.07 66.9023C185.964 67.2279 184.714 67.3906 183.32 67.3906C181.328 67.3906 179.642 67.0326 178.262 66.3164C176.882 65.6003 175.84 64.7018 175.137 63.6211C174.447 62.5273 174.102 61.4076 174.102 60.2617H179.824C179.85 60.9648 180.026 61.5378 180.352 61.9805C180.69 62.4232 181.126 62.7487 181.66 62.957C182.194 63.1523 182.793 63.25 183.457 63.25C184.121 63.25 184.674 63.1589 185.117 62.9766C185.56 62.7943 185.898 62.5469 186.133 62.2344C186.367 61.9089 186.484 61.5378 186.484 61.1211Z" fill="white"/>
</svg>
