<svg width="350" height="65" viewBox="0 0 400 92" fill="none" xmlns="http://www.w3.org/2000/svg">
<rect y="1" width="232" height="73" fill="#C4C4C4" fill-opacity="0.8"/>
<path fill-rule="evenodd" clip-rule="evenodd" d="M92.7047 1.07197C92.4889 1.06826 92.2723 1.06641 92.0547 1.06641C87.4648 1.06641 83.2656 1.88021 79.457 3.50781C75.681 5.10286 72.4095 7.43034 69.6426 10.4902C66.9082 13.5176 64.776 17.196 63.2461 21.5254C61.7487 25.8548 61 30.7376 61 36.1738V39.0547C61 44.4909 61.7487 49.3737 63.2461 53.7031C64.776 58 66.9245 61.6784 69.6914 64.7383C72.4909 67.7656 75.7786 70.0931 79.5547 71.7207C83.3633 73.3158 87.5625 74.1133 92.1523 74.1133C92.3371 74.1133 92.5213 74.112 92.7047 74.1093V60.7241C92.5224 60.7309 92.3383 60.7344 92.1523 60.7344C89.8737 60.7344 87.8717 60.2624 86.1465 59.3184C84.4538 58.3743 83.0215 56.9746 81.8496 55.1191C80.7103 53.2637 79.8477 51.0013 79.2617 48.332C78.7083 45.6302 78.4316 42.5378 78.4316 39.0547V36.0762C78.4316 32.5605 78.7083 29.4681 79.2617 26.7988C79.8477 24.097 80.7103 21.8346 81.8496 20.0117C82.9889 18.1888 84.4049 16.8216 86.0977 15.9102C87.7904 14.9661 89.776 14.4941 92.0547 14.4941C92.2738 14.4941 92.4905 14.4989 92.7047 14.5084V1.07197Z" fill="black"/>
<path fill-rule="evenodd" clip-rule="evenodd" d="M92.7046 74.1833L92.7104 74.1833C97.3003 74.1833 101.5 73.3858 105.308 71.7908C109.084 70.1632 112.372 67.8357 115.171 64.8083C117.938 61.7485 120.087 58.0701 121.617 53.7732C123.114 49.4438 123.863 44.561 123.863 39.1248V36.2439C123.863 30.8077 123.114 25.9249 121.617 21.5955C120.087 17.266 117.955 13.5876 115.22 10.5603C112.453 7.50041 109.182 5.17293 105.406 3.57788C101.597 1.95028 97.3979 1.13647 92.8081 1.13647C92.7736 1.13647 92.7391 1.13652 92.7046 1.13661V14.5646C92.739 14.5643 92.7735 14.5642 92.8081 14.5642C95.0867 14.5642 97.0724 15.0362 98.7651 15.9802C100.458 16.8917 101.874 18.2589 103.013 20.0818C104.152 21.9047 105.015 24.1671 105.601 26.8689C106.154 29.5382 106.431 32.6306 106.431 36.1462V39.1248C106.431 42.6078 106.154 45.7003 105.601 48.4021C105.015 51.0714 104.152 53.3337 103.013 55.1892C101.841 57.0447 100.409 58.4444 98.7163 59.3884C96.991 60.3324 94.9891 60.8044 92.7104 60.8044C92.7085 60.8044 92.7065 60.8044 92.7046 60.8044V74.1833Z" fill="white"/>
<path d="M42.4316 49.0629H59.5215C59.2936 54.0124 57.959 58.3758 55.5176 62.1531C53.0762 65.9304 49.6908 68.8774 45.3613 70.994C41.0645 73.078 35.9863 74.12 30.127 74.12C25.3743 74.12 21.1263 73.3222 17.3828 71.7266C13.6719 70.1311 10.5143 67.8354 7.91016 64.8396C5.33854 61.8438 3.36914 58.213 2.00195 53.9473C0.667318 49.6815 0 44.8785 0 39.5382V35.6795C0 30.3392 0.69987 25.5361 2.09961 21.2704C3.5319 16.9721 5.55013 13.3251 8.1543 10.3293C10.791 7.30092 13.9486 4.98896 17.627 3.39337C21.3053 1.79779 25.3906 1 29.8828 1C36.0677 1 41.2923 2.10714 45.5566 4.32142C49.821 6.53569 53.125 9.58033 55.4688 13.4553C57.8125 17.2977 59.196 21.6774 59.6191 26.5944H42.5293C42.4642 23.9243 42.0085 21.6937 41.1621 19.9028C40.3158 18.0792 38.9811 16.7116 37.1582 15.7998C35.3353 14.8881 32.9102 14.4322 29.8828 14.4322C27.7669 14.4322 25.9277 14.823 24.3652 15.6045C22.8027 16.386 21.5007 17.6234 20.459 19.3166C19.4173 21.0099 18.6361 23.2079 18.1152 25.9106C17.627 28.5808 17.3828 31.8045 17.3828 35.5818V39.5382C17.3828 43.3155 17.6107 46.5392 18.0664 49.2094C18.5221 51.8795 19.2546 54.0613 20.2637 55.7545C21.2728 57.4478 22.5749 58.7015 24.1699 59.5155C25.7975 60.2971 27.7832 60.6878 30.127 60.6878C32.7311 60.6878 34.9284 60.2808 36.7188 59.4667C38.5091 58.6201 39.8926 57.3501 40.8691 55.6568C41.8457 53.931 42.3665 51.733 42.4316 49.0629Z" fill="black"/>
<path d="M125 1H152.844C158.286 1 163.016 1.837 167.033 3.51099C171.05 5.18498 174.144 7.66249 176.315 10.9435C178.517 14.2245 179.619 18.2756 179.619 23.0967C179.619 27.2817 178.987 30.7803 177.724 33.5926C176.46 36.4049 174.695 38.7318 172.427 40.5732C170.192 42.3811 167.584 43.871 164.604 45.0428L159.015 48.307H135.642L135.545 34.6975H152.844C155.014 34.6975 156.812 34.2957 158.238 33.4922C159.663 32.6887 160.732 31.5504 161.445 30.0773C162.19 28.5707 162.563 26.7795 162.563 24.7037C162.563 22.5945 162.19 20.7866 161.445 19.28C160.7 17.7734 159.598 16.6184 158.141 15.8148C156.715 15.0113 154.95 14.6096 152.844 14.6096H142.056V74.12H125V1ZM163.729 74.12L148.082 41.7785L166.159 41.678L182 73.3667V74.12H163.729Z" fill="black"/>
<path d="M231.926 60.5607V74.12H194.035V60.5607H231.926ZM200.139 1V74.12H183V1H200.139ZM227.043 30.027V43.1344H194.035V30.027H227.043ZM232.072 1V14.6096H194.035V1H232.072Z" fill="black"/>
<path d="M286.221 1V74.12H283.584L237.686 5.62022V74.12H235V1H237.686L283.584 69.3491V1H286.221Z" fill="black"/>
<path d="M336.656 55.0844C336.656 52.836 336.266 50.8321 335.484 49.0725C334.703 47.3129 333.45 45.7326 331.725 44.3314C329.999 42.9303 327.737 41.6432 324.938 40.4702C322.171 39.2971 318.769 38.1567 314.732 37.0488C311.119 36.0712 307.864 35.0285 304.967 33.9206C302.07 32.7802 299.596 31.4768 297.545 30.0105C295.527 28.5442 293.98 26.8009 292.906 24.7806C291.832 22.7278 291.295 20.2677 291.295 17.4002C291.295 14.6957 291.881 12.2681 293.053 10.1175C294.257 7.96695 295.917 6.14221 298.033 4.64332C300.182 3.14442 302.688 2.00396 305.553 1.22193C308.417 0.407308 311.526 0 314.879 0C319.501 0 323.587 0.879786 327.135 2.63936C330.683 4.39893 333.466 6.85907 335.484 10.0198C337.535 13.1479 338.561 16.8137 338.561 21.0171H335.924C335.924 17.498 335.045 14.3535 333.287 11.5839C331.529 8.81415 329.072 6.63098 325.914 5.03433C322.789 3.43768 319.111 2.63936 314.879 2.63936C310.419 2.63936 306.627 3.32364 303.502 4.69219C300.377 6.06075 298.001 7.8692 296.373 10.1175C294.745 12.3333 293.932 14.7283 293.932 17.3025C293.932 19.1924 294.257 20.9519 294.908 22.5812C295.592 24.2104 296.731 25.7256 298.326 27.1267C299.921 28.4953 302.118 29.7987 304.918 31.0369C307.717 32.2425 311.233 33.3993 315.465 34.5072C318.98 35.4195 322.187 36.446 325.084 37.5864C328.014 38.7269 330.536 40.0791 332.652 41.6432C334.801 43.2073 336.445 45.0809 337.584 47.2641C338.756 49.4147 339.342 51.9888 339.342 54.9866C339.342 57.8867 338.707 60.4609 337.438 62.7092C336.201 64.9575 334.475 66.8637 332.262 68.4278C330.048 69.9593 327.477 71.1323 324.547 71.947C321.65 72.729 318.541 73.12 315.221 73.12C312.193 73.12 309.133 72.7616 306.041 72.0447C302.949 71.3279 300.117 70.1711 297.545 68.5744C294.973 66.9452 292.906 64.7783 291.344 62.0738C289.781 59.3693 289 56.0293 289 52.054H291.637C291.637 55.6057 292.369 58.5709 293.834 60.9496C295.299 63.3283 297.203 65.2182 299.547 66.6194C301.923 67.9879 304.479 68.9818 307.213 69.6009C309.98 70.1874 312.649 70.4806 315.221 70.4806C319.387 70.4806 323.082 69.8289 326.305 68.5256C329.527 67.2222 332.05 65.4137 333.873 63.1002C335.729 60.7867 336.656 58.1148 336.656 55.0844Z" fill="black"/>
<path d="M344.637 2V92H342V2H344.637Z" fill="#6328C4"/>
<path d="M0 79.36L399 79.36V82L0 82L0 79.36Z" fill="#6328C4"/>
<path d="M396.438 51.3433H399.074C398.586 56.4591 397.235 60.7114 395.021 64.1002C392.84 67.4564 389.927 69.9655 386.281 71.6273C382.668 73.2891 378.485 74.12 373.732 74.12C369.826 74.12 366.294 73.3706 363.137 71.8717C359.979 70.3728 357.261 68.2385 354.982 65.4688C352.736 62.6991 351.011 59.408 349.807 55.5956C348.602 51.7506 348 47.5146 348 42.8876V32.2324C348 27.5728 348.602 23.3368 349.807 19.5244C351.011 15.712 352.736 12.4209 354.982 9.65123C357.261 6.88153 359.979 4.74724 363.137 3.24834C366.294 1.74945 369.826 1 373.732 1C378.485 1 382.668 1.83091 386.281 3.49273C389.927 5.15455 392.84 7.66357 395.021 11.0198C397.235 14.376 398.586 18.5957 399.074 23.6789H396.438C395.949 19.3126 394.761 15.6468 392.873 12.6816C391.018 9.7164 388.479 7.46806 385.256 5.93658C382.066 4.4051 378.225 3.63936 373.732 3.63936C370.282 3.63936 367.141 4.32364 364.309 5.69219C361.477 7.02816 359.035 8.95066 356.984 11.4597C354.966 13.9687 353.404 16.9665 352.297 20.453C351.19 23.9396 350.637 27.8335 350.637 32.1347V42.8876C350.637 47.1888 351.19 51.0989 352.297 54.6181C353.404 58.1372 354.966 61.1513 356.984 63.6603C359.035 66.1693 361.477 68.1081 364.309 69.4767C367.141 70.8127 370.282 71.4806 373.732 71.4806C378.127 71.4806 381.936 70.7801 385.158 69.3789C388.381 67.9452 390.936 65.7457 392.824 62.7805C394.745 59.7827 395.949 55.9703 396.438 51.3433Z" fill="black"/>
<circle cx="374" cy="39" r="8" fill="#6328C3"/>
</svg>
