<svg width="210" height="180" viewBox="0 0 210 180" fill="none" xmlns="http://www.w3.org/2000/svg">
<g filter="url(#filter0_bd_48_78)">
<rect x="5" y="1" width="200" height="170" rx="30" fill="url(#paint0_linear_48_78)"/>
</g>
<g filter="url(#filter1_bd_48_78)">
<path d="M61.1133 46.5234V33.3203H87.5977V46.5234H80.957V63.125H67.7539V46.5234H61.1133ZM120.449 33.3203V46.8359C120.449 52.7344 118.939 57.0052 115.918 59.6484C112.91 62.2917 109.473 63.6133 105.605 63.6133C102.806 63.6133 100.143 62.8841 97.6172 61.4258C95.1042 59.9674 93.3398 58.0469 92.3242 55.6641C91.3086 53.2682 90.8008 50.1302 90.8008 46.25V33.3203H104.004V47.1289C104.004 48.6133 104.134 49.5508 104.395 49.9414C104.655 50.332 105.046 50.5273 105.566 50.5273C106.296 50.5273 106.758 50.1758 106.953 49.4727C107.148 48.7565 107.246 47.5586 107.246 45.8789V33.3203H120.449ZM123.652 46.5234V33.3203H150.137V46.5234H143.496V63.125H130.293V46.5234H123.652Z" fill="url(#paint1_linear_48_78)" shape-rendering="crispEdges"/>
</g>
<g filter="url(#filter2_bd_48_78)">
<path d="M47.2798 93.3359H48.188L52.1284 102.726L56.0762 93.3359H56.9771L52.4727 104H51.7842L47.2798 93.3359ZM47.0015 93.3359H47.7998L47.895 99.3418V104H47.0015V93.3359ZM56.4717 93.3359H57.27V104H56.3691V99.3418L56.4717 93.3359ZM60.749 96.0752V104H59.8774V96.0752H60.749ZM59.7236 93.7827C59.7236 93.6167 59.7749 93.4775 59.8774 93.3652C59.9849 93.248 60.1313 93.1895 60.3169 93.1895C60.5024 93.1895 60.6489 93.248 60.7563 93.3652C60.8687 93.4775 60.9248 93.6167 60.9248 93.7827C60.9248 93.9438 60.8687 94.083 60.7563 94.2002C60.6489 94.3125 60.5024 94.3687 60.3169 94.3687C60.1313 94.3687 59.9849 94.3125 59.8774 94.2002C59.7749 94.083 59.7236 93.9438 59.7236 93.7827ZM66.0664 103.392C66.4375 103.392 66.7842 103.324 67.1064 103.187C67.4336 103.045 67.7021 102.838 67.9121 102.564C68.127 102.286 68.249 101.947 68.2783 101.546H69.1133C69.0889 102.049 68.9351 102.499 68.6519 102.894C68.3735 103.285 68.0073 103.592 67.5532 103.817C67.104 104.037 66.6084 104.146 66.0664 104.146C65.5146 104.146 65.0264 104.046 64.6016 103.846C64.1816 103.646 63.8301 103.368 63.5469 103.011C63.2637 102.65 63.0488 102.23 62.9023 101.751C62.7607 101.268 62.6899 100.748 62.6899 100.191V99.8838C62.6899 99.3271 62.7607 98.8096 62.9023 98.3311C63.0488 97.8477 63.2637 97.4277 63.5469 97.0713C63.8301 96.71 64.1816 96.4292 64.6016 96.229C65.0215 96.0288 65.5073 95.9287 66.0591 95.9287C66.6255 95.9287 67.1333 96.0435 67.5825 96.2729C68.0366 96.5024 68.3979 96.8271 68.6665 97.2471C68.9399 97.667 69.0889 98.165 69.1133 98.7412H68.2783C68.2539 98.3164 68.1416 97.9502 67.9414 97.6426C67.7412 97.335 67.4775 97.0981 67.1504 96.9321C66.8232 96.7661 66.4595 96.6831 66.0591 96.6831C65.6099 96.6831 65.2266 96.771 64.9092 96.9468C64.5918 97.1177 64.333 97.3545 64.1328 97.6572C63.9375 97.9551 63.7935 98.2969 63.7007 98.6826C63.6079 99.0635 63.5615 99.4639 63.5615 99.8838V100.191C63.5615 100.616 63.6055 101.021 63.6934 101.407C63.7861 101.788 63.9302 102.127 64.1255 102.425C64.3257 102.723 64.5845 102.96 64.9019 103.136C65.2241 103.307 65.6123 103.392 66.0664 103.392ZM71.75 97.3862V104H70.8784V96.0752H71.728L71.75 97.3862ZM74.5552 96.0166L74.5332 96.8223C74.4355 96.8076 74.3403 96.7954 74.2476 96.7856C74.1548 96.7759 74.0547 96.771 73.9473 96.771C73.5664 96.771 73.2319 96.8418 72.9438 96.9834C72.6606 97.1201 72.4214 97.313 72.2261 97.562C72.0308 97.8062 71.8818 98.0942 71.7793 98.4263C71.6768 98.7534 71.6182 99.105 71.6035 99.481L71.2812 99.6055C71.2812 99.0879 71.335 98.6069 71.4424 98.1626C71.5498 97.7183 71.7134 97.3301 71.9331 96.998C72.1577 96.6611 72.4385 96.3999 72.7754 96.2144C73.1172 96.0239 73.5176 95.9287 73.9766 95.9287C74.0889 95.9287 74.1987 95.9385 74.3062 95.958C74.4185 95.9727 74.5015 95.9922 74.5552 96.0166ZM75.3022 100.162V99.9204C75.3022 99.3442 75.3853 98.812 75.5513 98.3237C75.7173 97.8354 75.9541 97.4131 76.2617 97.0566C76.5742 96.7002 76.9478 96.4243 77.3823 96.229C77.8169 96.0288 78.3003 95.9287 78.8325 95.9287C79.3696 95.9287 79.8555 96.0288 80.29 96.229C80.7246 96.4243 81.0981 96.7002 81.4106 97.0566C81.7231 97.4131 81.9624 97.8354 82.1284 98.3237C82.2944 98.812 82.3774 99.3442 82.3774 99.9204V100.162C82.3774 100.738 82.2944 101.271 82.1284 101.759C81.9624 102.242 81.7231 102.662 81.4106 103.019C81.103 103.375 80.7319 103.653 80.2974 103.854C79.8628 104.049 79.3794 104.146 78.8472 104.146C78.3101 104.146 77.8242 104.049 77.3896 103.854C76.9551 103.653 76.5815 103.375 76.269 103.019C75.9565 102.662 75.7173 102.242 75.5513 101.759C75.3853 101.271 75.3022 100.738 75.3022 100.162ZM76.1738 99.9204V100.162C76.1738 100.597 76.2324 101.009 76.3496 101.4C76.4668 101.786 76.6377 102.13 76.8623 102.433C77.0869 102.73 77.3652 102.965 77.6973 103.136C78.0293 103.307 78.4126 103.392 78.8472 103.392C79.2769 103.392 79.6553 103.307 79.9824 103.136C80.3145 102.965 80.5928 102.73 80.8174 102.433C81.042 102.13 81.2104 101.786 81.3228 101.4C81.4399 101.009 81.4985 100.597 81.4985 100.162V99.9204C81.4985 99.4907 81.4399 99.083 81.3228 98.6973C81.2104 98.3115 81.0396 97.9673 80.8101 97.6646C80.5854 97.3618 80.3071 97.1226 79.9751 96.9468C79.6431 96.771 79.2622 96.6831 78.8325 96.6831C78.4028 96.6831 78.022 96.771 77.6899 96.9468C77.3628 97.1226 77.0845 97.3618 76.855 97.6646C76.6304 97.9673 76.4595 98.3115 76.3423 98.6973C76.23 99.083 76.1738 99.4907 76.1738 99.9204ZM86.9185 98.917V99.6714H83.4102V98.917H86.9185ZM89.3721 97.3862V104H88.5005V96.0752H89.3501L89.3721 97.3862ZM92.1772 96.0166L92.1553 96.8223C92.0576 96.8076 91.9624 96.7954 91.8696 96.7856C91.7769 96.7759 91.6768 96.771 91.5693 96.771C91.1885 96.771 90.854 96.8418 90.5659 96.9834C90.2827 97.1201 90.0435 97.313 89.8481 97.562C89.6528 97.8062 89.5039 98.0942 89.4014 98.4263C89.2988 98.7534 89.2402 99.105 89.2256 99.481L88.9033 99.6055C88.9033 99.0879 88.957 98.6069 89.0645 98.1626C89.1719 97.7183 89.3354 97.3301 89.5552 96.998C89.7798 96.6611 90.0605 96.3999 90.3975 96.2144C90.7393 96.0239 91.1396 95.9287 91.5986 95.9287C91.7109 95.9287 91.8208 95.9385 91.9282 95.958C92.0405 95.9727 92.1235 95.9922 92.1772 96.0166ZM96.4692 104.146C95.9517 104.146 95.4756 104.051 95.041 103.861C94.6113 103.67 94.2354 103.402 93.9131 103.055C93.5957 102.708 93.3491 102.298 93.1733 101.825C93.0024 101.346 92.917 100.824 92.917 100.257V99.9424C92.917 99.332 93.0073 98.7803 93.188 98.2871C93.3687 97.7939 93.6177 97.3716 93.9351 97.02C94.2524 96.6685 94.6138 96.3999 95.019 96.2144C95.4292 96.0239 95.8589 95.9287 96.3081 95.9287C96.811 95.9287 97.2578 96.019 97.6484 96.1997C98.0391 96.3755 98.3662 96.627 98.6299 96.9541C98.8984 97.2764 99.1011 97.6597 99.2378 98.104C99.3745 98.5435 99.4429 99.0293 99.4429 99.5615V100.096H93.4443V99.3491H98.5713V99.2466C98.5615 98.8022 98.4712 98.3872 98.3003 98.0015C98.1343 97.6108 97.8853 97.2935 97.5532 97.0493C97.2212 96.8052 96.8062 96.6831 96.3081 96.6831C95.937 96.6831 95.5952 96.7612 95.2827 96.9175C94.9751 97.0737 94.709 97.2983 94.4844 97.5913C94.2646 97.8794 94.0938 98.2236 93.9717 98.624C93.8545 99.0195 93.7959 99.459 93.7959 99.9424V100.257C93.7959 100.697 93.8594 101.107 93.9863 101.488C94.1182 101.864 94.3037 102.196 94.543 102.484C94.7871 102.772 95.0752 102.997 95.4072 103.158C95.7393 103.319 96.1055 103.399 96.5059 103.399C96.9746 103.399 97.3896 103.314 97.751 103.143C98.1123 102.967 98.437 102.691 98.7251 102.315L99.2744 102.74C99.1035 102.994 98.8887 103.229 98.6299 103.443C98.376 103.658 98.0708 103.829 97.7144 103.956C97.3579 104.083 96.9429 104.146 96.4692 104.146ZM104.167 96.0752V96.793H100.197V96.0752H104.167ZM101.655 94.0391H102.526V102.074C102.526 102.44 102.575 102.716 102.673 102.901C102.771 103.087 102.897 103.211 103.054 103.275C103.21 103.338 103.378 103.37 103.559 103.37C103.691 103.37 103.818 103.363 103.94 103.348C104.062 103.329 104.172 103.309 104.27 103.29L104.306 104.029C104.199 104.063 104.06 104.09 103.889 104.11C103.718 104.134 103.547 104.146 103.376 104.146C103.039 104.146 102.741 104.085 102.482 103.963C102.224 103.836 102.021 103.622 101.875 103.319C101.728 103.011 101.655 102.594 101.655 102.066V94.0391ZM110.825 102.579V98.4922C110.825 98.1162 110.747 97.7915 110.59 97.5181C110.434 97.2446 110.205 97.0347 109.902 96.8882C109.599 96.7417 109.226 96.6685 108.781 96.6685C108.371 96.6685 108.005 96.7417 107.683 96.8882C107.365 97.0298 107.114 97.2227 106.928 97.4668C106.748 97.7061 106.657 97.9722 106.657 98.2651L105.778 98.2578C105.778 97.96 105.852 97.6719 105.998 97.3936C106.145 97.1152 106.352 96.8662 106.621 96.6465C106.889 96.4268 107.209 96.2534 107.58 96.1265C107.956 95.9946 108.369 95.9287 108.818 95.9287C109.384 95.9287 109.882 96.0239 110.312 96.2144C110.747 96.4048 111.086 96.6904 111.33 97.0713C111.574 97.4521 111.696 97.9307 111.696 98.5068V102.337C111.696 102.611 111.716 102.894 111.755 103.187C111.799 103.48 111.86 103.722 111.938 103.912V104H111.008C110.949 103.824 110.903 103.604 110.869 103.341C110.839 103.072 110.825 102.818 110.825 102.579ZM111.03 99.3857L111.044 100.06H109.323C108.874 100.06 108.471 100.101 108.115 100.184C107.763 100.262 107.465 100.379 107.221 100.536C106.977 100.687 106.789 100.87 106.657 101.085C106.53 101.3 106.467 101.544 106.467 101.817C106.467 102.101 106.538 102.359 106.679 102.594C106.826 102.828 107.031 103.016 107.294 103.158C107.563 103.294 107.88 103.363 108.247 103.363C108.735 103.363 109.165 103.272 109.536 103.092C109.912 102.911 110.222 102.674 110.466 102.381C110.71 102.088 110.874 101.769 110.957 101.422L111.337 101.927C111.274 102.171 111.157 102.423 110.986 102.682C110.82 102.936 110.603 103.175 110.334 103.399C110.065 103.619 109.748 103.8 109.382 103.941C109.021 104.078 108.61 104.146 108.151 104.146C107.634 104.146 107.182 104.049 106.796 103.854C106.416 103.658 106.118 103.392 105.903 103.055C105.693 102.713 105.588 102.328 105.588 101.898C105.588 101.507 105.671 101.158 105.837 100.851C106.003 100.538 106.242 100.274 106.555 100.06C106.872 99.8398 107.253 99.6738 107.697 99.5615C108.146 99.4443 108.649 99.3857 109.206 99.3857H111.03ZM115.021 96.0752V104H114.15V96.0752H115.021ZM113.996 93.7827C113.996 93.6167 114.047 93.4775 114.15 93.3652C114.257 93.248 114.404 93.1895 114.589 93.1895C114.775 93.1895 114.921 93.248 115.029 93.3652C115.141 93.4775 115.197 93.6167 115.197 93.7827C115.197 93.9438 115.141 94.083 115.029 94.2002C114.921 94.3125 114.775 94.3687 114.589 94.3687C114.404 94.3687 114.257 94.3125 114.15 94.2002C114.047 94.083 113.996 93.9438 113.996 93.7827ZM118.391 92.75V104H117.519V92.75H118.391ZM125.422 92.75V104H124.55V92.75H125.422ZM127.333 100.162V99.9204C127.333 99.3442 127.417 98.812 127.583 98.3237C127.749 97.8354 127.985 97.4131 128.293 97.0566C128.605 96.7002 128.979 96.4243 129.414 96.229C129.848 96.0288 130.332 95.9287 130.864 95.9287C131.401 95.9287 131.887 96.0288 132.321 96.229C132.756 96.4243 133.129 96.7002 133.442 97.0566C133.754 97.4131 133.994 97.8354 134.16 98.3237C134.326 98.812 134.409 99.3442 134.409 99.9204V100.162C134.409 100.738 134.326 101.271 134.16 101.759C133.994 102.242 133.754 102.662 133.442 103.019C133.134 103.375 132.763 103.653 132.329 103.854C131.894 104.049 131.411 104.146 130.878 104.146C130.341 104.146 129.855 104.049 129.421 103.854C128.986 103.653 128.613 103.375 128.3 103.019C127.988 102.662 127.749 102.242 127.583 101.759C127.417 101.271 127.333 100.738 127.333 100.162ZM128.205 99.9204V100.162C128.205 100.597 128.264 101.009 128.381 101.4C128.498 101.786 128.669 102.13 128.894 102.433C129.118 102.73 129.396 102.965 129.729 103.136C130.061 103.307 130.444 103.392 130.878 103.392C131.308 103.392 131.687 103.307 132.014 103.136C132.346 102.965 132.624 102.73 132.849 102.433C133.073 102.13 133.242 101.786 133.354 101.4C133.471 101.009 133.53 100.597 133.53 100.162V99.9204C133.53 99.4907 133.471 99.083 133.354 98.6973C133.242 98.3115 133.071 97.9673 132.841 97.6646C132.617 97.3618 132.338 97.1226 132.006 96.9468C131.674 96.771 131.293 96.6831 130.864 96.6831C130.434 96.6831 130.053 96.771 129.721 96.9468C129.394 97.1226 129.116 97.3618 128.886 97.6646C128.662 97.9673 128.491 98.3115 128.374 98.6973C128.261 99.083 128.205 99.4907 128.205 99.9204ZM138.459 103.209L140.927 96.0752H141.872L138.518 105.274C138.449 105.455 138.361 105.655 138.254 105.875C138.151 106.095 138.015 106.305 137.844 106.505C137.678 106.71 137.468 106.876 137.214 107.003C136.965 107.135 136.66 107.201 136.298 107.201C136.206 107.201 136.086 107.188 135.939 107.164C135.798 107.145 135.695 107.125 135.632 107.105L135.625 106.366C135.678 106.38 135.756 106.393 135.859 106.402C135.961 106.412 136.032 106.417 136.071 106.417C136.389 106.417 136.655 106.363 136.87 106.256C137.089 106.148 137.272 105.987 137.419 105.772C137.565 105.562 137.695 105.299 137.807 104.981L138.459 103.209ZM136.152 96.0752L138.679 102.879L138.913 103.795L138.276 104.154L135.2 96.0752H136.152ZM147.944 102.579V98.4922C147.944 98.1162 147.866 97.7915 147.709 97.5181C147.553 97.2446 147.324 97.0347 147.021 96.8882C146.718 96.7417 146.345 96.6685 145.9 96.6685C145.49 96.6685 145.124 96.7417 144.802 96.8882C144.484 97.0298 144.233 97.2227 144.047 97.4668C143.867 97.7061 143.776 97.9722 143.776 98.2651L142.897 98.2578C142.897 97.96 142.971 97.6719 143.117 97.3936C143.264 97.1152 143.471 96.8662 143.74 96.6465C144.008 96.4268 144.328 96.2534 144.699 96.1265C145.075 95.9946 145.488 95.9287 145.937 95.9287C146.503 95.9287 147.001 96.0239 147.431 96.2144C147.866 96.4048 148.205 96.6904 148.449 97.0713C148.693 97.4521 148.815 97.9307 148.815 98.5068V102.337C148.815 102.611 148.835 102.894 148.874 103.187C148.918 103.48 148.979 103.722 149.057 103.912V104H148.127C148.068 103.824 148.022 103.604 147.988 103.341C147.958 103.072 147.944 102.818 147.944 102.579ZM148.149 99.3857L148.164 100.06H146.442C145.993 100.06 145.59 100.101 145.234 100.184C144.882 100.262 144.584 100.379 144.34 100.536C144.096 100.687 143.908 100.87 143.776 101.085C143.649 101.3 143.586 101.544 143.586 101.817C143.586 102.101 143.657 102.359 143.798 102.594C143.945 102.828 144.15 103.016 144.414 103.158C144.682 103.294 145 103.363 145.366 103.363C145.854 103.363 146.284 103.272 146.655 103.092C147.031 102.911 147.341 102.674 147.585 102.381C147.829 102.088 147.993 101.769 148.076 101.422L148.457 101.927C148.393 102.171 148.276 102.423 148.105 102.682C147.939 102.936 147.722 103.175 147.453 103.399C147.185 103.619 146.867 103.8 146.501 103.941C146.14 104.078 145.729 104.146 145.271 104.146C144.753 104.146 144.301 104.049 143.916 103.854C143.535 103.658 143.237 103.392 143.022 103.055C142.812 102.713 142.707 102.328 142.707 101.898C142.707 101.507 142.79 101.158 142.956 100.851C143.122 100.538 143.361 100.274 143.674 100.06C143.991 99.8398 144.372 99.6738 144.816 99.5615C145.266 99.4443 145.769 99.3857 146.325 99.3857H148.149ZM152.141 92.75V104H151.269V92.75H152.141ZM157.531 96.0752V96.793H153.562V96.0752H157.531ZM155.019 94.0391H155.891V102.074C155.891 102.44 155.939 102.716 156.037 102.901C156.135 103.087 156.262 103.211 156.418 103.275C156.574 103.338 156.743 103.37 156.923 103.37C157.055 103.37 157.182 103.363 157.304 103.348C157.426 103.329 157.536 103.309 157.634 103.29L157.67 104.029C157.563 104.063 157.424 104.09 157.253 104.11C157.082 104.134 156.911 104.146 156.74 104.146C156.403 104.146 156.105 104.085 155.847 103.963C155.588 103.836 155.385 103.622 155.239 103.319C155.092 103.011 155.019 102.594 155.019 102.066V94.0391ZM161.721 103.209L164.189 96.0752H165.134L161.779 105.274C161.711 105.455 161.623 105.655 161.516 105.875C161.413 106.095 161.276 106.305 161.105 106.505C160.939 106.71 160.729 106.876 160.476 107.003C160.227 107.135 159.921 107.201 159.56 107.201C159.467 107.201 159.348 107.188 159.201 107.164C159.06 107.145 158.957 107.125 158.894 107.105L158.886 106.366C158.94 106.38 159.018 106.393 159.121 106.402C159.223 106.412 159.294 106.417 159.333 106.417C159.65 106.417 159.917 106.363 160.131 106.256C160.351 106.148 160.534 105.987 160.681 105.772C160.827 105.562 160.957 105.299 161.069 104.981L161.721 103.209ZM159.414 96.0752L161.94 102.879L162.175 103.795L161.538 104.154L158.461 96.0752H159.414ZM63.5469 115.716V122H62.668V114.075H63.5103L63.5469 115.716ZM63.3857 117.547L62.9609 117.327C62.9902 116.858 63.0781 116.419 63.2246 116.009C63.376 115.599 63.5859 115.237 63.8545 114.925C64.123 114.612 64.4453 114.368 64.8213 114.192C65.1973 114.017 65.6245 113.929 66.103 113.929C66.4888 113.929 66.8379 113.982 67.1504 114.09C67.4678 114.192 67.7363 114.356 67.9561 114.581C68.1807 114.8 68.354 115.088 68.4761 115.445C68.5981 115.801 68.6592 116.229 68.6592 116.727V122H67.7876V116.756C67.7876 116.229 67.7046 115.816 67.5386 115.518C67.3774 115.22 67.1504 115.008 66.8574 114.881C66.5693 114.754 66.2349 114.69 65.854 114.69C65.4048 114.69 65.0239 114.783 64.7114 114.969C64.4038 115.149 64.1523 115.386 63.957 115.679C63.7666 115.967 63.625 116.277 63.5322 116.609C63.4395 116.937 63.3906 117.249 63.3857 117.547ZM68.6519 116.858L68.0659 116.873C68.0903 116.487 68.1782 116.119 68.3296 115.767C68.4858 115.416 68.6982 115.103 68.9668 114.83C69.2354 114.551 69.5552 114.332 69.9263 114.17C70.3022 114.009 70.7246 113.929 71.1934 113.929C71.6035 113.929 71.9697 113.985 72.292 114.097C72.6143 114.205 72.8853 114.378 73.105 114.617C73.3296 114.852 73.5005 115.152 73.6177 115.518C73.7349 115.884 73.7935 116.324 73.7935 116.836V122H72.9146V116.829C72.9146 116.268 72.8315 115.833 72.6655 115.525C72.5044 115.213 72.2798 114.996 71.9917 114.874C71.7036 114.751 71.3667 114.69 70.981 114.69C70.6001 114.695 70.2656 114.766 69.9775 114.903C69.6895 115.035 69.4478 115.21 69.2524 115.43C69.062 115.645 68.9155 115.877 68.813 116.126C68.7153 116.375 68.6616 116.619 68.6519 116.858ZM80.8394 120.579V116.492C80.8394 116.116 80.7612 115.792 80.605 115.518C80.4487 115.245 80.2192 115.035 79.9165 114.888C79.6138 114.742 79.2402 114.668 78.7959 114.668C78.3857 114.668 78.0195 114.742 77.6973 114.888C77.3799 115.03 77.1284 115.223 76.9429 115.467C76.7622 115.706 76.6719 115.972 76.6719 116.265L75.793 116.258C75.793 115.96 75.8662 115.672 76.0127 115.394C76.1592 115.115 76.3667 114.866 76.6353 114.646C76.9038 114.427 77.2236 114.253 77.5947 114.126C77.9707 113.995 78.3833 113.929 78.8325 113.929C79.3989 113.929 79.897 114.024 80.3267 114.214C80.7612 114.405 81.1006 114.69 81.3447 115.071C81.5889 115.452 81.7109 115.931 81.7109 116.507V120.337C81.7109 120.611 81.7305 120.894 81.7695 121.187C81.8135 121.48 81.8745 121.722 81.9526 121.912V122H81.0225C80.9639 121.824 80.9175 121.604 80.8833 121.341C80.854 121.072 80.8394 120.818 80.8394 120.579ZM81.0444 117.386L81.0591 118.06H79.3379C78.8887 118.06 78.4858 118.101 78.1294 118.184C77.7778 118.262 77.48 118.379 77.2358 118.536C76.9917 118.687 76.8037 118.87 76.6719 119.085C76.5449 119.3 76.4814 119.544 76.4814 119.817C76.4814 120.101 76.5522 120.359 76.6938 120.594C76.8403 120.828 77.0454 121.016 77.3091 121.158C77.5776 121.294 77.895 121.363 78.2612 121.363C78.7495 121.363 79.1792 121.272 79.5503 121.092C79.9263 120.911 80.2363 120.674 80.4805 120.381C80.7246 120.088 80.8882 119.769 80.9712 119.422L81.3521 119.927C81.2886 120.171 81.1714 120.423 81.0005 120.682C80.8345 120.936 80.6172 121.175 80.3486 121.399C80.0801 121.619 79.7627 121.8 79.3965 121.941C79.0352 122.078 78.625 122.146 78.166 122.146C77.6484 122.146 77.1968 122.049 76.811 121.854C76.4302 121.658 76.1323 121.392 75.9175 121.055C75.7075 120.713 75.6025 120.328 75.6025 119.898C75.6025 119.507 75.6855 119.158 75.8516 118.851C76.0176 118.538 76.2568 118.274 76.5693 118.06C76.8867 117.84 77.2676 117.674 77.7119 117.562C78.1611 117.444 78.6641 117.386 79.2207 117.386H81.0444ZM84.9336 115.767V122H84.062V114.075H84.897L84.9336 115.767ZM84.7358 117.547L84.3477 117.327C84.377 116.858 84.4722 116.419 84.6333 116.009C84.7944 115.599 85.0117 115.237 85.2852 114.925C85.5635 114.612 85.8882 114.368 86.2593 114.192C86.6353 114.017 87.0503 113.929 87.5044 113.929C87.8999 113.929 88.2539 113.982 88.5664 114.09C88.8789 114.197 89.145 114.368 89.3647 114.603C89.5845 114.837 89.7505 115.137 89.8628 115.503C89.98 115.87 90.0386 116.316 90.0386 116.844V122H89.1597V116.836C89.1597 116.29 89.084 115.862 88.9326 115.555C88.7812 115.242 88.5664 115.02 88.2881 114.888C88.0098 114.756 87.6802 114.69 87.2993 114.69C86.8794 114.69 86.5107 114.783 86.1934 114.969C85.8809 115.149 85.6172 115.386 85.4023 115.679C85.1924 115.967 85.0312 116.277 84.9189 116.609C84.8066 116.937 84.7456 117.249 84.7358 117.547ZM97.1284 120.579V116.492C97.1284 116.116 97.0503 115.792 96.894 115.518C96.7378 115.245 96.5083 115.035 96.2056 114.888C95.9028 114.742 95.5293 114.668 95.085 114.668C94.6748 114.668 94.3086 114.742 93.9863 114.888C93.6689 115.03 93.4175 115.223 93.2319 115.467C93.0513 115.706 92.9609 115.972 92.9609 116.265L92.082 116.258C92.082 115.96 92.1553 115.672 92.3018 115.394C92.4482 115.115 92.6558 114.866 92.9243 114.646C93.1929 114.427 93.5127 114.253 93.8838 114.126C94.2598 113.995 94.6724 113.929 95.1216 113.929C95.688 113.929 96.186 114.024 96.6157 114.214C97.0503 114.405 97.3896 114.69 97.6338 115.071C97.8779 115.452 98 115.931 98 116.507V120.337C98 120.611 98.0195 120.894 98.0586 121.187C98.1025 121.48 98.1636 121.722 98.2417 121.912V122H97.3115C97.2529 121.824 97.2065 121.604 97.1724 121.341C97.1431 121.072 97.1284 120.818 97.1284 120.579ZM97.3335 117.386L97.3481 118.06H95.627C95.1777 118.06 94.7749 118.101 94.4185 118.184C94.0669 118.262 93.769 118.379 93.5249 118.536C93.2808 118.687 93.0928 118.87 92.9609 119.085C92.834 119.3 92.7705 119.544 92.7705 119.817C92.7705 120.101 92.8413 120.359 92.9829 120.594C93.1294 120.828 93.3345 121.016 93.5981 121.158C93.8667 121.294 94.1841 121.363 94.5503 121.363C95.0386 121.363 95.4683 121.272 95.8394 121.092C96.2153 120.911 96.5254 120.674 96.7695 120.381C97.0137 120.088 97.1772 119.769 97.2603 119.422L97.6411 119.927C97.5776 120.171 97.4604 120.423 97.2896 120.682C97.1235 120.936 96.9062 121.175 96.6377 121.399C96.3691 121.619 96.0518 121.8 95.6855 121.941C95.3242 122.078 94.9141 122.146 94.4551 122.146C93.9375 122.146 93.4858 122.049 93.1001 121.854C92.7192 121.658 92.4214 121.392 92.2065 121.055C91.9966 120.713 91.8916 120.328 91.8916 119.898C91.8916 119.507 91.9746 119.158 92.1406 118.851C92.3066 118.538 92.5459 118.274 92.8584 118.06C93.1758 117.84 93.5566 117.674 94.001 117.562C94.4502 117.444 94.9531 117.386 95.5098 117.386H97.3335ZM105.566 114.075H106.379V121.861C106.379 122.549 106.247 123.14 105.983 123.633C105.725 124.126 105.356 124.505 104.877 124.769C104.404 125.032 103.845 125.164 103.2 125.164C102.873 125.164 102.536 125.113 102.189 125.01C101.848 124.913 101.523 124.761 101.215 124.556C100.913 124.356 100.654 124.107 100.439 123.809L100.93 123.274C101.252 123.665 101.596 123.951 101.962 124.131C102.329 124.317 102.724 124.41 103.149 124.41C103.652 124.41 104.077 124.31 104.423 124.109C104.775 123.909 105.041 123.621 105.222 123.245C105.407 122.869 105.5 122.417 105.5 121.89V115.818L105.566 114.075ZM99.9995 118.118V117.964C99.9995 117.349 100.068 116.795 100.205 116.302C100.346 115.804 100.549 115.379 100.812 115.027C101.076 114.671 101.396 114.4 101.772 114.214C102.153 114.024 102.583 113.929 103.061 113.929C103.52 113.929 103.928 114.004 104.284 114.156C104.641 114.307 104.948 114.524 105.207 114.808C105.466 115.091 105.673 115.428 105.83 115.818C105.991 116.209 106.108 116.644 106.181 117.122V119.078C106.123 119.527 106.015 119.939 105.859 120.315C105.703 120.687 105.495 121.011 105.236 121.29C104.978 121.563 104.665 121.775 104.299 121.927C103.938 122.073 103.52 122.146 103.046 122.146C102.573 122.146 102.148 122.049 101.772 121.854C101.396 121.658 101.076 121.382 100.812 121.026C100.549 120.665 100.346 120.237 100.205 119.744C100.068 119.251 99.9995 118.709 99.9995 118.118ZM100.878 117.964V118.118C100.878 118.582 100.925 119.012 101.018 119.407C101.11 119.803 101.252 120.147 101.442 120.44C101.633 120.733 101.875 120.962 102.167 121.128C102.46 121.294 102.805 121.377 103.2 121.377C103.703 121.377 104.125 121.282 104.467 121.092C104.809 120.896 105.08 120.64 105.28 120.323C105.48 120 105.627 119.649 105.72 119.268V116.99C105.666 116.731 105.583 116.468 105.471 116.199C105.363 115.931 105.212 115.684 105.017 115.459C104.826 115.23 104.582 115.047 104.284 114.91C103.991 114.769 103.635 114.698 103.215 114.698C102.814 114.698 102.465 114.781 102.167 114.947C101.875 115.113 101.633 115.345 101.442 115.643C101.252 115.936 101.11 116.28 101.018 116.675C100.925 117.071 100.878 117.5 100.878 117.964ZM111.733 122.146C111.215 122.146 110.739 122.051 110.305 121.861C109.875 121.67 109.499 121.402 109.177 121.055C108.859 120.708 108.613 120.298 108.437 119.825C108.266 119.346 108.181 118.824 108.181 118.257V117.942C108.181 117.332 108.271 116.78 108.452 116.287C108.632 115.794 108.881 115.372 109.199 115.02C109.516 114.668 109.877 114.4 110.283 114.214C110.693 114.024 111.123 113.929 111.572 113.929C112.075 113.929 112.521 114.019 112.912 114.2C113.303 114.375 113.63 114.627 113.894 114.954C114.162 115.276 114.365 115.66 114.501 116.104C114.638 116.543 114.707 117.029 114.707 117.562V118.096H108.708V117.349H113.835V117.247C113.825 116.802 113.735 116.387 113.564 116.001C113.398 115.611 113.149 115.293 112.817 115.049C112.485 114.805 112.07 114.683 111.572 114.683C111.201 114.683 110.859 114.761 110.546 114.917C110.239 115.074 109.973 115.298 109.748 115.591C109.528 115.879 109.357 116.224 109.235 116.624C109.118 117.02 109.06 117.459 109.06 117.942V118.257C109.06 118.697 109.123 119.107 109.25 119.488C109.382 119.864 109.567 120.196 109.807 120.484C110.051 120.772 110.339 120.997 110.671 121.158C111.003 121.319 111.369 121.399 111.77 121.399C112.238 121.399 112.653 121.314 113.015 121.143C113.376 120.967 113.701 120.691 113.989 120.315L114.538 120.74C114.367 120.994 114.152 121.229 113.894 121.443C113.64 121.658 113.334 121.829 112.978 121.956C112.622 122.083 112.207 122.146 111.733 122.146ZM117.263 115.716V122H116.384V114.075H117.226L117.263 115.716ZM117.102 117.547L116.677 117.327C116.706 116.858 116.794 116.419 116.94 116.009C117.092 115.599 117.302 115.237 117.57 114.925C117.839 114.612 118.161 114.368 118.537 114.192C118.913 114.017 119.34 113.929 119.819 113.929C120.205 113.929 120.554 113.982 120.866 114.09C121.184 114.192 121.452 114.356 121.672 114.581C121.896 114.8 122.07 115.088 122.192 115.445C122.314 115.801 122.375 116.229 122.375 116.727V122H121.503V116.756C121.503 116.229 121.42 115.816 121.254 115.518C121.093 115.22 120.866 115.008 120.573 114.881C120.285 114.754 119.951 114.69 119.57 114.69C119.121 114.69 118.74 114.783 118.427 114.969C118.12 115.149 117.868 115.386 117.673 115.679C117.482 115.967 117.341 116.277 117.248 116.609C117.155 116.937 117.106 117.249 117.102 117.547ZM122.368 116.858L121.782 116.873C121.806 116.487 121.894 116.119 122.045 115.767C122.202 115.416 122.414 115.103 122.683 114.83C122.951 114.551 123.271 114.332 123.642 114.17C124.018 114.009 124.44 113.929 124.909 113.929C125.319 113.929 125.686 113.985 126.008 114.097C126.33 114.205 126.601 114.378 126.821 114.617C127.045 114.852 127.216 115.152 127.333 115.518C127.451 115.884 127.509 116.324 127.509 116.836V122H126.63V116.829C126.63 116.268 126.547 115.833 126.381 115.525C126.22 115.213 125.996 114.996 125.708 114.874C125.419 114.751 125.083 114.69 124.697 114.69C124.316 114.695 123.981 114.766 123.693 114.903C123.405 115.035 123.164 115.21 122.968 115.43C122.778 115.645 122.631 115.877 122.529 116.126C122.431 116.375 122.377 116.619 122.368 116.858ZM132.797 122.146C132.28 122.146 131.804 122.051 131.369 121.861C130.939 121.67 130.563 121.402 130.241 121.055C129.924 120.708 129.677 120.298 129.501 119.825C129.331 119.346 129.245 118.824 129.245 118.257V117.942C129.245 117.332 129.335 116.78 129.516 116.287C129.697 115.794 129.946 115.372 130.263 115.02C130.581 114.668 130.942 114.4 131.347 114.214C131.757 114.024 132.187 113.929 132.636 113.929C133.139 113.929 133.586 114.019 133.977 114.2C134.367 114.375 134.694 114.627 134.958 114.954C135.227 115.276 135.429 115.66 135.566 116.104C135.703 116.543 135.771 117.029 135.771 117.562V118.096H129.772V117.349H134.899V117.247C134.89 116.802 134.799 116.387 134.628 116.001C134.462 115.611 134.213 115.293 133.881 115.049C133.549 114.805 133.134 114.683 132.636 114.683C132.265 114.683 131.923 114.761 131.611 114.917C131.303 115.074 131.037 115.298 130.812 115.591C130.593 115.879 130.422 116.224 130.3 116.624C130.183 117.02 130.124 117.459 130.124 117.942V118.257C130.124 118.697 130.188 119.107 130.314 119.488C130.446 119.864 130.632 120.196 130.871 120.484C131.115 120.772 131.403 120.997 131.735 121.158C132.067 121.319 132.434 121.399 132.834 121.399C133.303 121.399 133.718 121.314 134.079 121.143C134.44 120.967 134.765 120.691 135.053 120.315L135.603 120.74C135.432 120.994 135.217 121.229 134.958 121.443C134.704 121.658 134.399 121.829 134.042 121.956C133.686 122.083 133.271 122.146 132.797 122.146ZM138.371 115.767V122H137.5V114.075H138.334L138.371 115.767ZM138.173 117.547L137.785 117.327C137.814 116.858 137.91 116.419 138.071 116.009C138.232 115.599 138.449 115.237 138.723 114.925C139.001 114.612 139.326 114.368 139.697 114.192C140.073 114.017 140.488 113.929 140.942 113.929C141.337 113.929 141.691 113.982 142.004 114.09C142.316 114.197 142.583 114.368 142.802 114.603C143.022 114.837 143.188 115.137 143.3 115.503C143.417 115.87 143.476 116.316 143.476 116.844V122H142.597V116.836C142.597 116.29 142.521 115.862 142.37 115.555C142.219 115.242 142.004 115.02 141.726 114.888C141.447 114.756 141.118 114.69 140.737 114.69C140.317 114.69 139.948 114.783 139.631 114.969C139.318 115.149 139.055 115.386 138.84 115.679C138.63 115.967 138.469 116.277 138.356 116.609C138.244 116.937 138.183 117.249 138.173 117.547ZM148.742 114.075V114.793H144.772V114.075H148.742ZM146.23 112.039H147.102V120.074C147.102 120.44 147.15 120.716 147.248 120.901C147.346 121.087 147.473 121.211 147.629 121.275C147.785 121.338 147.954 121.37 148.134 121.37C148.266 121.37 148.393 121.363 148.515 121.348C148.637 121.329 148.747 121.309 148.845 121.29L148.881 122.029C148.774 122.063 148.635 122.09 148.464 122.11C148.293 122.134 148.122 122.146 147.951 122.146C147.614 122.146 147.316 122.085 147.058 121.963C146.799 121.836 146.596 121.622 146.45 121.319C146.303 121.011 146.23 120.594 146.23 120.066V112.039ZM87.2773 137.979C87.2773 137.764 87.2236 137.551 87.1162 137.341C87.0088 137.131 86.8013 136.938 86.4937 136.763C86.1909 136.587 85.7441 136.438 85.1533 136.316C84.7139 136.218 84.3208 136.108 83.9741 135.986C83.6323 135.864 83.3442 135.718 83.1099 135.547C82.8755 135.376 82.6973 135.171 82.5752 134.932C82.4531 134.692 82.3921 134.409 82.3921 134.082C82.3921 133.789 82.4556 133.513 82.5825 133.254C82.7144 132.991 82.8999 132.761 83.1392 132.566C83.3833 132.366 83.6763 132.209 84.0181 132.097C84.3647 131.985 84.7529 131.929 85.1826 131.929C85.793 131.929 86.3154 132.034 86.75 132.244C87.1895 132.449 87.5239 132.729 87.7534 133.086C87.9878 133.442 88.105 133.845 88.105 134.294H87.2334C87.2334 134.021 87.1528 133.762 86.9917 133.518C86.8354 133.274 86.6035 133.074 86.2959 132.917C85.9932 132.761 85.6221 132.683 85.1826 132.683C84.7285 132.683 84.3599 132.751 84.0767 132.888C83.7935 133.025 83.5859 133.198 83.4541 133.408C83.3271 133.618 83.2637 133.835 83.2637 134.06C83.2637 134.236 83.2905 134.397 83.3442 134.543C83.4028 134.685 83.5054 134.817 83.6519 134.939C83.8032 135.061 84.0181 135.176 84.2964 135.283C84.5747 135.391 84.936 135.496 85.3804 135.598C86.02 135.74 86.5425 135.913 86.9478 136.118C87.3579 136.318 87.6606 136.567 87.856 136.865C88.0513 137.158 88.1489 137.515 88.1489 137.935C88.1489 138.262 88.0806 138.562 87.9438 138.835C87.8071 139.104 87.6094 139.336 87.3506 139.531C87.0967 139.727 86.7891 139.878 86.4277 139.985C86.0713 140.093 85.6709 140.146 85.2266 140.146C84.5576 140.146 83.9912 140.037 83.5273 139.817C83.0684 139.592 82.7192 139.299 82.48 138.938C82.2456 138.572 82.1284 138.184 82.1284 137.773H83C83.0293 138.184 83.1587 138.508 83.3882 138.748C83.6177 138.982 83.8984 139.148 84.2305 139.246C84.5674 139.343 84.8994 139.392 85.2266 139.392C85.6758 139.392 86.0518 139.326 86.3545 139.194C86.6572 139.062 86.8867 138.889 87.043 138.674C87.1992 138.459 87.2773 138.228 87.2773 137.979ZM92.4849 139.209L94.9531 132.075H95.8979L92.5435 141.274C92.4751 141.455 92.3872 141.655 92.2798 141.875C92.1772 142.095 92.0405 142.305 91.8696 142.505C91.7036 142.71 91.4937 142.876 91.2397 143.003C90.9907 143.135 90.6855 143.201 90.3242 143.201C90.2314 143.201 90.1118 143.188 89.9653 143.164C89.8237 143.145 89.7212 143.125 89.6577 143.105L89.6504 142.366C89.7041 142.38 89.7822 142.393 89.8848 142.402C89.9873 142.412 90.0581 142.417 90.0972 142.417C90.4146 142.417 90.6807 142.363 90.8955 142.256C91.1152 142.148 91.2983 141.987 91.4448 141.772C91.5913 141.562 91.7207 141.299 91.833 140.981L92.4849 139.209ZM90.1777 132.075L92.7046 138.879L92.939 139.795L92.3018 140.154L89.2256 132.075H90.1777ZM102.014 137.979C102.014 137.764 101.96 137.551 101.853 137.341C101.745 137.131 101.538 136.938 101.23 136.763C100.927 136.587 100.48 136.438 99.8896 136.316C99.4502 136.218 99.0571 136.108 98.7104 135.986C98.3687 135.864 98.0806 135.718 97.8462 135.547C97.6118 135.376 97.4336 135.171 97.3115 134.932C97.1895 134.692 97.1284 134.409 97.1284 134.082C97.1284 133.789 97.1919 133.513 97.3188 133.254C97.4507 132.991 97.6362 132.761 97.8755 132.566C98.1196 132.366 98.4126 132.209 98.7544 132.097C99.1011 131.985 99.4893 131.929 99.9189 131.929C100.529 131.929 101.052 132.034 101.486 132.244C101.926 132.449 102.26 132.729 102.49 133.086C102.724 133.442 102.841 133.845 102.841 134.294H101.97C101.97 134.021 101.889 133.762 101.728 133.518C101.572 133.274 101.34 133.074 101.032 132.917C100.729 132.761 100.358 132.683 99.9189 132.683C99.4648 132.683 99.0962 132.751 98.813 132.888C98.5298 133.025 98.3223 133.198 98.1904 133.408C98.0635 133.618 98 133.835 98 134.06C98 134.236 98.0269 134.397 98.0806 134.543C98.1392 134.685 98.2417 134.817 98.3882 134.939C98.5396 135.061 98.7544 135.176 99.0327 135.283C99.311 135.391 99.6724 135.496 100.117 135.598C100.756 135.74 101.279 135.913 101.684 136.118C102.094 136.318 102.397 136.567 102.592 136.865C102.788 137.158 102.885 137.515 102.885 137.935C102.885 138.262 102.817 138.562 102.68 138.835C102.543 139.104 102.346 139.336 102.087 139.531C101.833 139.727 101.525 139.878 101.164 139.985C100.808 140.093 100.407 140.146 99.9629 140.146C99.2939 140.146 98.7275 140.037 98.2637 139.817C97.8047 139.592 97.4556 139.299 97.2163 138.938C96.9819 138.572 96.8647 138.184 96.8647 137.773H97.7363C97.7656 138.184 97.895 138.508 98.1245 138.748C98.354 138.982 98.6348 139.148 98.9668 139.246C99.3037 139.343 99.6357 139.392 99.9629 139.392C100.412 139.392 100.788 139.326 101.091 139.194C101.394 139.062 101.623 138.889 101.779 138.674C101.936 138.459 102.014 138.228 102.014 137.979ZM107.866 132.075V132.793H103.896V132.075H107.866ZM105.354 130.039H106.225V138.074C106.225 138.44 106.274 138.716 106.372 138.901C106.469 139.087 106.596 139.211 106.752 139.275C106.909 139.338 107.077 139.37 107.258 139.37C107.39 139.37 107.517 139.363 107.639 139.348C107.761 139.329 107.871 139.309 107.968 139.29L108.005 140.029C107.897 140.063 107.758 140.09 107.587 140.11C107.417 140.134 107.246 140.146 107.075 140.146C106.738 140.146 106.44 140.085 106.181 139.963C105.922 139.836 105.72 139.622 105.573 139.319C105.427 139.011 105.354 138.594 105.354 138.066V130.039ZM112.766 140.146C112.248 140.146 111.772 140.051 111.337 139.861C110.908 139.67 110.532 139.402 110.209 139.055C109.892 138.708 109.646 138.298 109.47 137.825C109.299 137.346 109.213 136.824 109.213 136.257V135.942C109.213 135.332 109.304 134.78 109.484 134.287C109.665 133.794 109.914 133.372 110.231 133.02C110.549 132.668 110.91 132.4 111.315 132.214C111.726 132.024 112.155 131.929 112.604 131.929C113.107 131.929 113.554 132.019 113.945 132.2C114.335 132.375 114.663 132.627 114.926 132.954C115.195 133.276 115.397 133.66 115.534 134.104C115.671 134.543 115.739 135.029 115.739 135.562V136.096H109.741V135.349H114.868V135.247C114.858 134.802 114.768 134.387 114.597 134.001C114.431 133.611 114.182 133.293 113.85 133.049C113.518 132.805 113.103 132.683 112.604 132.683C112.233 132.683 111.892 132.761 111.579 132.917C111.271 133.074 111.005 133.298 110.781 133.591C110.561 133.879 110.39 134.224 110.268 134.624C110.151 135.02 110.092 135.459 110.092 135.942V136.257C110.092 136.697 110.156 137.107 110.283 137.488C110.415 137.864 110.6 138.196 110.839 138.484C111.083 138.772 111.372 138.997 111.704 139.158C112.036 139.319 112.402 139.399 112.802 139.399C113.271 139.399 113.686 139.314 114.047 139.143C114.409 138.967 114.733 138.691 115.021 138.315L115.571 138.74C115.4 138.994 115.185 139.229 114.926 139.443C114.672 139.658 114.367 139.829 114.011 139.956C113.654 140.083 113.239 140.146 112.766 140.146ZM118.295 133.716V140H117.417V132.075H118.259L118.295 133.716ZM118.134 135.547L117.709 135.327C117.739 134.858 117.827 134.419 117.973 134.009C118.125 133.599 118.334 133.237 118.603 132.925C118.872 132.612 119.194 132.368 119.57 132.192C119.946 132.017 120.373 131.929 120.852 131.929C121.237 131.929 121.586 131.982 121.899 132.09C122.216 132.192 122.485 132.356 122.705 132.581C122.929 132.8 123.103 133.088 123.225 133.445C123.347 133.801 123.408 134.229 123.408 134.727V140H122.536V134.756C122.536 134.229 122.453 133.816 122.287 133.518C122.126 133.22 121.899 133.008 121.606 132.881C121.318 132.754 120.983 132.69 120.603 132.69C120.153 132.69 119.772 132.783 119.46 132.969C119.152 133.149 118.901 133.386 118.706 133.679C118.515 133.967 118.374 134.277 118.281 134.609C118.188 134.937 118.139 135.249 118.134 135.547ZM123.4 134.858L122.814 134.873C122.839 134.487 122.927 134.119 123.078 133.767C123.234 133.416 123.447 133.103 123.715 132.83C123.984 132.551 124.304 132.332 124.675 132.17C125.051 132.009 125.473 131.929 125.942 131.929C126.352 131.929 126.718 131.985 127.041 132.097C127.363 132.205 127.634 132.378 127.854 132.617C128.078 132.852 128.249 133.152 128.366 133.518C128.483 133.884 128.542 134.324 128.542 134.836V140H127.663V134.829C127.663 134.268 127.58 133.833 127.414 133.525C127.253 133.213 127.028 132.996 126.74 132.874C126.452 132.751 126.115 132.69 125.729 132.69C125.349 132.695 125.014 132.766 124.726 132.903C124.438 133.035 124.196 133.21 124.001 133.43C123.811 133.645 123.664 133.877 123.562 134.126C123.464 134.375 123.41 134.619 123.4 134.858Z" fill="#CFCFCF"/>
</g>
<defs>
<filter id="filter0_bd_48_78" x="0" y="-3" width="210" height="183" filterUnits="userSpaceOnUse" color-interpolation-filters="sRGB">
<feFlood flood-opacity="0" result="BackgroundImageFix"/>
<feGaussianBlur in="BackgroundImage" stdDeviation="2"/>
<feComposite in2="SourceAlpha" operator="in" result="effect1_backgroundBlur_48_78"/>
<feColorMatrix in="SourceAlpha" type="matrix" values="0 0 0 0 0 0 0 0 0 0 0 0 0 0 0 0 0 0 127 0" result="hardAlpha"/>
<feOffset dy="4"/>
<feGaussianBlur stdDeviation="2.5"/>
<feComposite in2="hardAlpha" operator="out"/>
<feColorMatrix type="matrix" values="0 0 0 0 0 0 0 0 0 0 0 0 0 0 0 0 0 0 0.5 0"/>
<feBlend mode="normal" in2="effect1_backgroundBlur_48_78" result="effect2_dropShadow_48_78"/>
<feBlend mode="normal" in="SourceGraphic" in2="effect2_dropShadow_48_78" result="shape"/>
</filter>
<filter id="filter1_bd_48_78" x="56.1133" y="29.3203" width="99.0234" height="43.293" filterUnits="userSpaceOnUse" color-interpolation-filters="sRGB">
<feFlood flood-opacity="0" result="BackgroundImageFix"/>
<feGaussianBlur in="BackgroundImage" stdDeviation="2"/>
<feComposite in2="SourceAlpha" operator="in" result="effect1_backgroundBlur_48_78"/>
<feColorMatrix in="SourceAlpha" type="matrix" values="0 0 0 0 0 0 0 0 0 0 0 0 0 0 0 0 0 0 127 0" result="hardAlpha"/>
<feOffset dy="4"/>
<feGaussianBlur stdDeviation="2.5"/>
<feComposite in2="hardAlpha" operator="out"/>
<feColorMatrix type="matrix" values="0 0 0 0 0 0 0 0 0 0 0 0 0 0 0 0 0 0 0.5 0"/>
<feBlend mode="normal" in2="effect1_backgroundBlur_48_78" result="effect2_dropShadow_48_78"/>
<feBlend mode="normal" in="SourceGraphic" in2="effect2_dropShadow_48_78" result="shape"/>
</filter>
<filter id="filter2_bd_48_78" x="42.0015" y="88.75" width="128.132" height="63.4507" filterUnits="userSpaceOnUse" color-interpolation-filters="sRGB">
<feFlood flood-opacity="0" result="BackgroundImageFix"/>
<feGaussianBlur in="BackgroundImage" stdDeviation="2"/>
<feComposite in2="SourceAlpha" operator="in" result="effect1_backgroundBlur_48_78"/>
<feColorMatrix in="SourceAlpha" type="matrix" values="0 0 0 0 0 0 0 0 0 0 0 0 0 0 0 0 0 0 127 0" result="hardAlpha"/>
<feOffset dy="4"/>
<feGaussianBlur stdDeviation="2.5"/>
<feComposite in2="hardAlpha" operator="out"/>
<feColorMatrix type="matrix" values="0 0 0 0 0 0 0 0 0 0 0 0 0 0 0 0 0 0 0.5 0"/>
<feBlend mode="normal" in2="effect1_backgroundBlur_48_78" result="effect2_dropShadow_48_78"/>
<feBlend mode="normal" in="SourceGraphic" in2="effect2_dropShadow_48_78" result="shape"/>
</filter>
<linearGradient id="paint0_linear_48_78" x1="-48.7598" y1="40.8232" x2="264.931" y2="102.156" gradientUnits="userSpaceOnUse">
<stop stop-color="#6328C3"/>
<stop offset="0.9998"/>
<stop offset="0.9999"/>
</linearGradient>
<linearGradient id="paint1_linear_48_78" x1="31.049" y1="48.0816" x2="218.724" y2="48.0816" gradientUnits="userSpaceOnUse">
<stop stop-color="#F3F3F3"/>
<stop offset="1" stop-color="#6C6363" stop-opacity="0"/>
</linearGradient>
</defs>
</svg>
